<svg width="26" height="26" viewBox="0 0 26 26" fill="none" xmlns="http://www.w3.org/2000/svg" xmlns:xlink="http://www.w3.org/1999/xlink">
<path d="M19.175,22.988L17.053,25.108L5.495,13.554C5.308,13.369 5.16,13.149 5.059,12.906C4.959,12.664 4.907,12.404 4.907,12.141C4.907,11.878 4.959,11.618 5.059,11.376C5.16,11.133 5.308,10.913 5.495,10.728L17.053,-0.832L19.173,1.288L8.325,12.138L19.175,22.988Z" transform="rotate(-180.48 12.041 12.138)" fill="#757575"/>
<path d="M19.175,22.988L17.053,25.108L5.495,13.554C5.308,13.369 5.16,13.149 5.059,12.906C4.959,12.664 4.907,12.404 4.907,12.141C4.907,11.878 4.959,11.618 5.059,11.376C5.16,11.133 5.308,10.913 5.495,10.728L17.053,-0.832L19.173,1.288L8.325,12.138L19.175,22.988Z" transform="rotate(-180.48 12.041 12.138)" fill="#757575"/>
</svg>
