<svg width="26" height="26" viewBox="0 0 26 26" fill="none" xmlns="http://www.w3.org/2000/svg" xmlns:xlink="http://www.w3.org/1999/xlink">
<path d="M19.174,22.988L17.052,25.108L5.494,13.554C5.308,13.369 5.16,13.149 5.059,12.907C4.958,12.664 4.906,12.404 4.906,12.141C4.906,11.879 4.958,11.619 5.059,11.376C5.16,11.134 5.308,10.914 5.494,10.728L17.052,-0.832L19.172,1.288L8.324,12.138L19.174,22.988Z" transform="rotate(-180.48 12.04 12.138)" fill="#000000"/>
<path d="M19.174,22.988L17.052,25.108L5.494,13.554C5.308,13.369 5.16,13.149 5.059,12.907C4.958,12.664 4.906,12.404 4.906,12.141C4.906,11.879 4.958,11.619 5.059,11.376C5.16,11.134 5.308,10.914 5.494,10.728L17.052,-0.832L19.172,1.288L8.324,12.138L19.174,22.988Z" transform="rotate(-180.48 12.04 12.138)" fill="#000000"/>
</svg>
