<svg width="154" height="154" viewBox="0 0 154 154" fill="none" xmlns="http://www.w3.org/2000/svg" xmlns:xlink="http://www.w3.org/1999/xlink">
<path d="M104.666,56.25C104.666,63.588 101.751,70.625 96.563,75.813C91.374,81.002 84.337,83.917 77,83.917C69.662,83.917 62.625,81.002 57.436,75.813C52.248,70.625 49.333,63.588 49.333,56.25C49.333,48.912 52.248,41.875 57.436,36.687C62.625,31.498 69.662,28.583 77,28.583C84.337,28.583 91.374,31.498 96.563,36.687C101.751,41.875 104.666,48.912 104.666,56.25ZM90.833,56.25C90.833,59.919 89.376,63.437 86.781,66.032C84.187,68.626 80.668,70.083 77,70.083C73.331,70.083 69.812,68.626 67.218,66.032C64.624,63.437 63.166,59.919 63.166,56.25C63.166,52.581 64.624,49.063 67.218,46.468C69.812,43.874 73.331,42.417 77,42.417C80.668,42.417 84.187,43.874 86.781,46.468C89.376,49.063 90.833,52.581 90.833,56.25Z" clip-rule="evenodd" fill-rule="evenodd" fill="#000000"/>
<path d="M77,0.917C34.981,0.917 0.917,34.981 0.917,77C0.917,119.019 34.981,153.083 77,153.083C119.019,153.083 153.083,119.019 153.083,77C153.083,34.981 119.019,0.917 77,0.917ZM14.75,77C14.75,91.456 19.681,104.763 27.947,115.332C33.753,107.711 41.242,101.534 49.829,97.285C58.416,93.035 67.869,90.827 77.45,90.833C86.907,90.822 96.243,92.971 104.744,97.116C113.245,101.261 120.687,107.293 126.503,114.751C132.495,106.891 136.531,97.717 138.274,87.988C140.017,78.259 139.419,68.254 136.528,58.802C133.637,49.35 128.538,40.722 121.65,33.633C114.763,26.543 106.287,21.195 96.923,18.032C87.558,14.869 77.575,13.981 67.8,15.442C58.024,16.902 48.737,20.67 40.707,26.433C32.676,32.195 26.133,39.787 21.62,48.581C17.106,57.374 14.751,67.116 14.75,77ZM77,139.25C62.709,139.273 48.85,134.357 37.769,125.334C42.229,118.947 48.166,113.732 55.075,110.134C61.984,106.536 69.66,104.66 77.45,104.667C85.142,104.66 92.725,106.489 99.569,110.002C106.413,113.514 112.319,118.609 116.798,124.863C105.631,134.18 91.543,139.273 77,139.25Z" clip-rule="evenodd" fill-rule="evenodd" fill="#000000"/>
</svg>
