<svg width="3126" height="1666" viewBox="0 0 3126 1666" fill="none" xmlns="http://www.w3.org/2000/svg" xmlns:xlink="http://www.w3.org/1999/xlink">
<circle cx="2835" cy="291" r="291" fill="#EFA0AB"/>
<circle cx="1905" cy="365" r="291" fill="#EFA0AB"/>
<circle cx="931" cy="441" r="291" fill="#EFA0AB"/>
<circle cx="1377" cy="441" r="291" fill="#EFA0AB"/>
<circle cx="448" cy="522" r="448" fill="#EFA0AB"/>
<circle cx="1220" cy="890" r="448" fill="#EFA0AB"/>
<path d="M2918,653C2918,908.708 2717.424,1116 2470,1116C2222.576,1116 2022,908.708 2022,653C2022,397.292 2222.576,190 2470,190C2717.424,190 2918,397.292 2918,653Z" fill="#EFA0AB"/>
<path d="M2196,985C2196,1240.708 1995.424,1448 1748,1448C1500.576,1448 1300,1240.708 1300,985C1300,729.292 1500.576,522 1748,522C1995.424,522 2196,729.292 2196,985Z" fill="#EFA0AB"/>
</svg>
