<svg width="86" height="72" viewBox="0 0 86 72" fill="none" xmlns="http://www.w3.org/2000/svg" xmlns:xlink="http://www.w3.org/1999/xlink">
<path d="M3.5,36L-0.165,34.397C-0.612,35.419 -0.612,36.581 -0.165,37.603L3.5,36ZM80.5,36L84.165,37.603C84.612,36.581 84.612,35.419 84.165,34.397L80.5,36ZM3.5,36C7.165,37.603 7.164,37.604 7.164,37.605C7.164,37.605 7.163,37.606 7.163,37.606C7.163,37.607 7.163,37.607 7.163,37.607C7.163,37.606 7.165,37.603 7.167,37.599C7.171,37.59 7.178,37.573 7.189,37.549C7.21,37.502 7.245,37.425 7.293,37.321C7.389,37.114 7.538,36.799 7.738,36.391C8.14,35.576 8.747,34.394 9.553,32.968C11.169,30.107 13.559,26.311 16.655,22.537C22.966,14.844 31.568,8 42,8L42,0C27.932,0 17.284,9.156 10.47,17.463C7.004,21.689 4.362,25.893 2.588,29.032C1.698,30.606 1.02,31.924 0.561,32.859C0.33,33.326 0.154,33.699 0.033,33.96C-0.027,34.091 -0.074,34.194 -0.107,34.267C-0.124,34.304 -0.137,34.333 -0.146,34.355C-0.151,34.366 -0.155,34.375 -0.158,34.382C-0.16,34.385 -0.161,34.388 -0.162,34.391C-0.163,34.392 -0.163,34.393 -0.163,34.394C-0.164,34.395 -0.165,34.397 3.5,36ZM42,8C52.432,8 61.034,14.844 67.345,22.537C70.441,26.311 72.831,30.107 74.447,32.968C75.253,34.394 75.86,35.576 76.262,36.391C76.462,36.799 76.611,37.114 76.707,37.321C76.755,37.425 76.79,37.502 76.811,37.549C76.822,37.573 76.829,37.59 76.833,37.599C76.835,37.603 76.837,37.606 76.837,37.607C76.837,37.607 76.837,37.607 76.837,37.606C76.837,37.606 76.836,37.605 76.836,37.605C76.836,37.604 76.835,37.603 80.5,36C84.165,34.397 84.164,34.395 84.163,34.394C84.163,34.393 84.163,34.392 84.162,34.391C84.161,34.388 84.16,34.385 84.158,34.382C84.155,34.375 84.151,34.366 84.146,34.355C84.137,34.333 84.124,34.304 84.107,34.267C84.074,34.194 84.027,34.091 83.967,33.96C83.846,33.699 83.67,33.326 83.439,32.859C82.98,31.924 82.302,30.606 81.412,29.032C79.638,25.893 76.996,21.689 73.53,17.463C66.716,9.156 56.068,0 42,0L42,8ZM80.5,36C76.835,34.397 76.836,34.396 76.836,34.395C76.836,34.395 76.837,34.394 76.837,34.394C76.837,34.393 76.837,34.393 76.837,34.393C76.837,34.394 76.835,34.397 76.833,34.401C76.829,34.41 76.822,34.427 76.811,34.451C76.79,34.498 76.755,34.575 76.707,34.679C76.611,34.886 76.462,35.201 76.262,35.609C75.86,36.424 75.253,37.606 74.447,39.032C72.831,41.893 70.441,45.689 67.345,49.463C61.034,57.156 52.432,64 42,64L42,72C56.068,72 66.716,62.844 73.53,54.537C76.996,50.311 79.638,46.107 81.412,42.968C82.302,41.394 82.98,40.076 83.439,39.141C83.67,38.674 83.846,38.301 83.967,38.04C84.027,37.909 84.074,37.806 84.107,37.733C84.124,37.696 84.137,37.667 84.146,37.645C84.151,37.634 84.155,37.625 84.158,37.618C84.16,37.615 84.161,37.612 84.162,37.609C84.163,37.608 84.163,37.607 84.163,37.606C84.164,37.605 84.165,37.603 80.5,36ZM42,64C31.568,64 22.966,57.156 16.655,49.463C13.559,45.689 11.169,41.893 9.553,39.032C8.747,37.606 8.14,36.424 7.738,35.609C7.538,35.201 7.389,34.886 7.293,34.679C7.245,34.575 7.21,34.498 7.189,34.451C7.178,34.427 7.171,34.41 7.167,34.401C7.165,34.397 7.163,34.394 7.163,34.393C7.163,34.393 7.163,34.393 7.163,34.394C7.163,34.394 7.164,34.395 7.164,34.395C7.164,34.396 7.165,34.397 3.5,36C-0.165,37.603 -0.164,37.605 -0.163,37.606C-0.163,37.607 -0.163,37.608 -0.162,37.609C-0.161,37.612 -0.16,37.615 -0.158,37.618C-0.155,37.625 -0.151,37.634 -0.146,37.645C-0.137,37.667 -0.124,37.696 -0.107,37.733C-0.074,37.806 -0.027,37.909 0.033,38.04C0.154,38.301 0.33,38.674 0.561,39.141C1.02,40.076 1.698,41.394 2.588,42.968C4.362,46.107 7.004,50.311 10.47,54.537C17.284,62.844 27.932,72 42,72L42,64ZM48.5,36C48.5,40.937 45.105,44 42,44L42,52C50.493,52 56.5,44.318 56.5,36L48.5,36ZM42,44C38.895,44 35.5,40.937 35.5,36L27.5,36C27.5,44.318 33.507,52 42,52L42,44ZM35.5,36C35.5,31.063 38.895,28 42,28L42,20C33.507,20 27.5,27.682 27.5,36L35.5,36ZM42,28C45.105,28 48.5,31.063 48.5,36L56.5,36C56.5,27.682 50.493,20 42,20L42,28Z" fill="#757575"/>
</svg>
