<svg width="78" height="60" viewBox="0 0 78 60" fill="none" xmlns="http://www.w3.org/2000/svg" xmlns:xlink="http://www.w3.org/1999/xlink">
<path d="M3.167,30L-0.411,28.211C-0.974,29.337 -0.974,30.663 -0.411,31.789L3.167,30ZM72.833,30L76.411,31.789C76.974,30.663 76.974,29.337 76.411,28.211L72.833,30ZM3.167,30C6.744,31.789 6.744,31.79 6.743,31.791C6.743,31.791 6.743,31.792 6.743,31.793C6.742,31.794 6.742,31.794 6.742,31.794C6.742,31.794 6.742,31.793 6.744,31.79C6.746,31.785 6.752,31.774 6.761,31.756C6.779,31.722 6.808,31.665 6.85,31.587C6.933,31.43 7.063,31.188 7.241,30.873C7.595,30.242 8.135,29.323 8.852,28.212C10.293,25.982 12.425,23.018 15.189,20.069C20.79,14.094 28.515,8.667 38,8.667L38,0.667C25.319,0.667 15.626,7.906 9.353,14.598C6.179,17.982 3.759,21.352 2.132,23.872C1.316,25.135 0.693,26.195 0.268,26.951C0.055,27.328 -0.108,27.631 -0.221,27.845C-0.278,27.952 -0.322,28.037 -0.354,28.099C-0.37,28.129 -0.382,28.154 -0.392,28.173C-0.397,28.183 -0.401,28.19 -0.404,28.197C-0.405,28.2 -0.407,28.203 -0.408,28.205C-0.409,28.206 -0.409,28.208 -0.41,28.209C-0.41,28.21 -0.411,28.211 3.167,30ZM38,8.667C47.485,8.667 55.21,14.094 60.811,20.069C63.575,23.018 65.707,25.982 67.148,28.212C67.865,29.323 68.405,30.242 68.759,30.873C68.937,31.188 69.067,31.43 69.15,31.587C69.192,31.665 69.221,31.722 69.239,31.756C69.248,31.774 69.253,31.785 69.256,31.79C69.258,31.793 69.258,31.794 69.258,31.794C69.258,31.794 69.258,31.794 69.257,31.793C69.257,31.792 69.257,31.791 69.257,31.791C69.256,31.79 69.256,31.789 72.833,30C76.411,28.211 76.41,28.21 76.41,28.209C76.409,28.208 76.409,28.206 76.408,28.205C76.407,28.203 76.405,28.2 76.404,28.197C76.401,28.19 76.397,28.183 76.392,28.173C76.382,28.154 76.369,28.129 76.354,28.099C76.322,28.037 76.278,27.952 76.221,27.845C76.108,27.631 75.945,27.328 75.732,26.951C75.307,26.195 74.684,25.135 73.868,23.872C72.241,21.352 69.821,17.982 66.647,14.598C60.374,7.906 50.681,0.667 38,0.667L38,8.667ZM72.833,30C69.256,28.211 69.256,28.21 69.257,28.209C69.257,28.209 69.257,28.208 69.257,28.208C69.258,28.207 69.258,28.206 69.258,28.206C69.258,28.206 69.258,28.207 69.256,28.21C69.253,28.215 69.248,28.227 69.239,28.244C69.221,28.278 69.192,28.335 69.15,28.414C69.067,28.571 68.937,28.813 68.759,29.128C68.405,29.758 67.865,30.677 67.148,31.788C65.707,34.019 63.575,36.983 60.811,39.931C55.21,45.906 47.485,51.333 38,51.333L38,59.333C50.681,59.333 60.374,52.094 66.647,45.403C69.821,42.018 72.241,38.648 73.868,36.129C74.684,34.865 75.307,33.805 75.732,33.05C75.945,32.672 76.108,32.37 76.221,32.156C76.278,32.048 76.322,31.963 76.354,31.902C76.369,31.871 76.382,31.846 76.392,31.827C76.397,31.818 76.401,31.81 76.404,31.803C76.405,31.8 76.407,31.797 76.408,31.795C76.409,31.794 76.409,31.792 76.41,31.792C76.41,31.79 76.411,31.789 72.833,30ZM38,51.333C28.515,51.333 20.79,45.906 15.189,39.931C12.425,36.983 10.293,34.019 8.852,31.788C8.135,30.677 7.595,29.758 7.241,29.128C7.063,28.813 6.933,28.571 6.85,28.414C6.808,28.335 6.779,28.278 6.761,28.244C6.752,28.227 6.746,28.215 6.744,28.21C6.742,28.207 6.742,28.206 6.742,28.206C6.742,28.206 6.742,28.207 6.743,28.208C6.743,28.208 6.743,28.209 6.743,28.209C6.744,28.21 6.744,28.211 3.167,30C-0.411,31.789 -0.41,31.79 -0.41,31.792C-0.409,31.792 -0.409,31.794 -0.408,31.795C-0.407,31.797 -0.405,31.8 -0.404,31.803C-0.401,31.81 -0.397,31.818 -0.392,31.827C-0.382,31.846 -0.37,31.871 -0.354,31.902C-0.322,31.963 -0.278,32.048 -0.221,32.156C-0.108,32.37 0.055,32.672 0.268,33.05C0.693,33.805 1.316,34.865 2.132,36.129C3.759,38.648 6.179,42.018 9.353,45.403C15.626,52.094 25.319,59.333 38,59.333L38,51.333ZM43.5,30C43.5,33.038 41.038,35.5 38,35.5L38,43.5C45.456,43.5 51.5,37.456 51.5,30L43.5,30ZM38,35.5C34.962,35.5 32.5,33.038 32.5,30L24.5,30C24.5,37.456 30.544,43.5 38,43.5L38,35.5ZM32.5,30C32.5,26.963 34.962,24.5 38,24.5L38,16.5C30.544,16.5 24.5,22.544 24.5,30L32.5,30ZM38,24.5C41.038,24.5 43.5,26.963 43.5,30L51.5,30C51.5,22.544 45.456,16.5 38,16.5L38,24.5Z" fill="#757575"/>
</svg>
