<svg width="126" height="126" viewBox="0 0 126 126" fill="none" xmlns="http://www.w3.org/2000/svg" xmlns:xlink="http://www.w3.org/1999/xlink">
<path d="M-0.823,124.667L-0.823,116.833L112.016,116.833C113.421,116.833 114.575,116.381 115.478,115.478C116.382,114.575 116.833,113.42 116.833,112.016L116.833,-0.518L124.667,-0.518L124.667,112.016C124.667,115.515 123.434,118.499 120.969,120.969C118.505,123.434 115.52,124.667 112.016,124.667L-0.823,124.667ZM85.5,97.25C82.194,97.25 79.411,96.117 77.15,93.85C74.883,91.589 73.75,88.806 73.75,85.5C73.75,82.194 74.883,79.411 77.15,77.15C79.416,74.888 82.2,73.755 85.5,73.75C88.801,73.745 91.584,74.878 93.85,77.15C96.117,79.411 97.25,82.194 97.25,85.5C97.25,88.806 96.117,91.589 93.85,93.85C91.589,96.117 88.806,97.25 85.5,97.25ZM15,62L15,54.167L48.621,54.167L0.994,6.383L6.383,0.986L54.167,48.621L54.167,15L62,15L62,62L15,62Z" fill="#483C3C"/>
</svg>
