<svg width="130" height="130" viewBox="0 0 130 130" fill="none" xmlns="http://www.w3.org/2000/svg" xmlns:xlink="http://www.w3.org/1999/xlink">
<path d="M38.05,0.833L91.95,0.833C112.483,0.833 129.167,17.517 129.167,38.05L129.167,91.95C129.167,101.82 125.246,111.287 118.266,118.266C111.287,125.246 101.821,129.167 91.95,129.167L38.05,129.167C17.517,129.167 0.833,112.483 0.833,91.95L0.833,38.05C0.833,28.179 4.755,18.713 11.734,11.734C18.713,4.754 28.18,0.833 38.05,0.833ZM36.767,13.667C30.64,13.667 24.765,16.1 20.433,20.432C16.101,24.764 13.667,30.64 13.667,36.767L13.667,93.233C13.667,106.002 23.998,116.333 36.767,116.333L93.233,116.333C99.36,116.333 105.235,113.899 109.568,109.567C113.9,105.235 116.333,99.36 116.333,93.233L116.333,36.767C116.333,23.997 106.003,13.667 93.233,13.667L36.767,13.667ZM98.688,23.292C100.815,23.292 102.855,24.137 104.359,25.641C105.863,27.145 106.708,29.185 106.708,31.312C106.708,33.44 105.863,35.48 104.359,36.984C102.855,38.488 100.815,39.333 98.688,39.333C96.56,39.333 94.52,38.488 93.016,36.984C91.512,35.48 90.667,33.44 90.667,31.312C90.667,29.185 91.512,27.145 93.016,25.641C94.52,24.137 96.56,23.292 98.688,23.292ZM65,32.917C73.509,32.917 81.67,36.297 87.686,42.314C93.703,48.33 97.083,56.491 97.083,65C97.083,73.509 93.703,81.669 87.686,87.686C81.67,93.703 73.509,97.083 65,97.083C56.491,97.083 48.331,93.703 42.314,87.686C36.297,81.669 32.917,73.509 32.917,65C32.917,56.491 36.297,48.33 42.314,42.314C48.331,36.297 56.491,32.917 65,32.917ZM65,45.75C59.895,45.75 54.998,47.778 51.388,51.388C47.778,54.998 45.75,59.894 45.75,65C45.75,70.105 47.778,75.002 51.388,78.612C54.998,82.222 59.895,84.25 65,84.25C70.105,84.25 75.002,82.222 78.612,78.612C82.222,75.002 84.25,70.105 84.25,65C84.25,59.894 82.222,54.998 78.612,51.388C75.002,47.778 70.105,45.75 65,45.75Z" fill="#483C3C"/>
</svg>
