<svg width="38" height="36" viewBox="0 0 38 36" fill="none" xmlns="http://www.w3.org/2000/svg" xmlns:xlink="http://www.w3.org/1999/xlink">
<path d="M0.955,35L0.955,32.75L33.366,32.75C33.77,32.75 34.101,32.62 34.361,32.361C34.62,32.101 34.75,31.77 34.75,31.366L34.75,-0.957L37,-0.957L37,31.366C37,32.371 36.646,33.229 35.938,33.938C35.23,34.646 34.373,35 33.366,35L0.955,35ZM25.75,27.125C24.801,27.125 24.001,26.8 23.352,26.149C22.701,25.499 22.375,24.7 22.375,23.75C22.375,22.801 22.701,22.001 23.352,21.352C24.003,20.702 24.802,20.377 25.75,20.375C26.698,20.374 27.498,20.699 28.149,21.352C28.8,22.001 29.125,22.801 29.125,23.75C29.125,24.7 28.8,25.499 28.149,26.149C27.499,26.8 26.7,27.125 25.75,27.125ZM5.5,17L5.5,14.75L15.157,14.75L1.477,1.025L3.025,-0.525L16.75,13.157L16.75,3.5L19,3.5L19,17L5.5,17Z" fill="#483C3C"/>
</svg>
