<svg width="130" height="130" viewBox="0 0 130 130" fill="none" xmlns="http://www.w3.org/2000/svg" xmlns:xlink="http://www.w3.org/1999/xlink">
<path d="M38.05,0.833L91.95,0.833C112.483,0.833 129.166,17.516 129.166,38.05L129.166,91.95C129.166,101.82 125.245,111.286 118.266,118.266C111.286,125.245 101.82,129.166 91.95,129.166L38.05,129.166C17.516,129.166 0.833,112.483 0.833,91.95L0.833,38.05C0.833,28.179 4.754,18.713 11.734,11.734C18.713,4.754 28.179,0.833 38.05,0.833ZM36.766,13.666C30.64,13.666 24.764,16.1 20.432,20.432C16.1,24.764 13.666,30.64 13.666,36.766L13.666,93.233C13.666,106.002 23.997,116.333 36.766,116.333L93.233,116.333C99.359,116.333 105.235,113.899 109.567,109.567C113.899,105.235 116.333,99.359 116.333,93.233L116.333,36.766C116.333,23.997 106.002,13.666 93.233,13.666L36.766,13.666ZM98.687,23.291C100.814,23.291 102.855,24.136 104.359,25.641C105.863,27.145 106.708,29.185 106.708,31.312C106.708,33.439 105.863,35.48 104.359,36.984C102.855,38.488 100.814,39.333 98.687,39.333C96.56,39.333 94.52,38.488 93.016,36.984C91.511,35.48 90.666,33.439 90.666,31.312C90.666,29.185 91.511,27.145 93.016,25.641C94.52,24.136 96.56,23.291 98.687,23.291ZM65,32.916C73.509,32.916 81.669,36.297 87.686,42.313C93.703,48.33 97.083,56.491 97.083,65C97.083,73.509 93.703,81.669 87.686,87.686C81.669,93.703 73.509,97.083 65,97.083C56.491,97.083 48.33,93.703 42.313,87.686C36.297,81.669 32.916,73.509 32.916,65C32.916,56.491 36.297,48.33 42.313,42.313C48.33,36.297 56.491,32.916 65,32.916ZM65,45.75C59.894,45.75 54.998,47.778 51.388,51.388C47.778,54.998 45.75,59.894 45.75,65C45.75,70.105 47.778,75.001 51.388,78.611C54.998,82.222 59.894,84.25 65,84.25C70.105,84.25 75.001,82.222 78.611,78.611C82.222,75.001 84.25,70.105 84.25,65C84.25,59.894 82.222,54.998 78.611,51.388C75.001,47.778 70.105,45.75 65,45.75Z" fill="#483C3C"/>
</svg>
